# xmcd
#
# Track frame offsets: 
#        150
#        23788
#        33087
#        68631
#        92359
#        123171
#        127662
#        145226
#        180868
#        197014
#        212176
#        216074
#
# Disc length: 3215 seconds
#
# Revision: 0
# Processed by: cddbd v1.5.2PL0 Copyright (c) Steve Scherf et al.
# Submitted via: ExactAudioCopy v1.0b3
#
DISCID=950c8d0c
DTITLE=Reverend Gary Davis - Live at Gerde's Folk City February, 1962 
DTITLE=CD 1
DYEAR=2009
DGENRE=Blues
TTITLE0=You Got To Move
TTITLE1=Intro to Come Down And See Me Sometime
TTITLE2=Come Down And See Me Sometime
TTITLE3=Wouldn't Say Quit
TTITLE4=Oh Lord
TTITLE5=Announcing Guitar Lessons
TTITLE6=People That Use to See, Can't See No More
TTITLE7=There's Destruction In This Land
TTITLE8=Intro to Soon My Work Will All Be Done
TTITLE9=Soon My Work Will All Be Done
TTITLE10=Into to Oh Glory, How Happy I Am
TTITLE11=Oh Glory, How Happy I Am
EXTD=
EXTT0=
EXTT1=
EXTT2=
EXTT3=
EXTT4=
EXTT5=
EXTT6=
EXTT7=
EXTT8=
EXTT9=
EXTT10=
EXTT11=
PLAYORDER=
